<?xml version="1.0" standalone="no"?>
<!DOCTYPE svg PUBLIC "-//W3C//DTD SVG 20010904//EN"
 "http://www.w3.org/TR/2001/REC-SVG-20010904/DTD/svg10.dtd">
<svg version="1.0" xmlns="http://www.w3.org/2000/svg"
 width="1668.000000pt" height="858.000000pt" viewBox="0 0 1668.000000 858.000000"
 fill="white"
 preserveAspectRatio="xMidYMid meet">

<g transform="translate(0.000000,858.000000) scale(0.100000,-0.100000)" stroke="none">
<path fill="white" d="M0 4290 l0 -4290 8340 0 8340 0 0 4290 0 4290 -8340 0 -8340 0 0
-4290z m6848 820 l2 -374 34 49 c76 113 177 173 306 182 363 25 580 -276 557
-771 -10 -210 -56 -362 -145 -471 -92 -114 -206 -166 -364 -166 -48 0 -106 5
-130 11 -118 32 -228 124 -286 239 l-30 59 -6 -36 c-3 -20 -6 -71 -6 -113 0
-42 -3 -91 -6 -108 l-6 -31 -274 0 -274 0 0 955 0 955 313 -2 312 -3 3 -375z
m6092 -317 c0 -384 5 -716 10 -737 15 -66 39 -81 127 -80 l76 2 -6 -62 c-4
-33 -9 -106 -13 -161 -4 -55 -12 -106 -18 -114 -33 -42 -203 -83 -341 -82
-129 0 -195 13 -275 53 -104 53 -157 142 -179 302 -12 85 -16 1558 -4 1569 3
4 145 7 315 7 l308 0 0 -697z m-8389 610 c41 -11 137 -53 224 -100 45 -24 177
-160 216 -223 45 -71 85 -168 104 -253 23 -103 22 -815 -1 -895 -41 -142 -135
-241 -276 -293 -50 -18 -83 -19 -569 -19 l-517 0 -31 35 c-31 36 -31 36 -31
155 l0 120 -150 0 -150 0 0 -110 c0 -119 -10 -155 -52 -184 -20 -14 -87 -16
-533 -16 -480 0 -513 1 -563 19 -119 44 -196 114 -254 230 l-33 66 0 435 c0
430 3 473 35 555 4 11 13 34 19 50 39 97 151 235 251 311 50 37 193 103 246
113 25 5 48 11 51 15 12 12 1964 1 2014 -11z m9642 -462 c235 -62 399 -227
452 -455 16 -70 23 -295 9 -329 -6 -16 -40 -17 -435 -17 l-429 0 6 -27 c22
-96 70 -133 174 -133 77 0 120 22 146 72 9 18 18 35 20 37 2 2 116 -27 254
-64 l251 -68 -6 -26 c-43 -175 -218 -310 -464 -357 -102 -20 -323 -19 -431 1
-279 53 -459 211 -526 460 -22 83 -30 286 -14 383 48 298 254 492 575 542 98
15 328 5 418 -19z m-5651 -425 c3 -413 4 -425 24 -453 46 -61 134 -49 170 23
18 36 19 68 22 447 l3 407 314 0 315 0 0 -680 0 -680 -282 2 -283 3 -6 110
c-4 61 -7 119 -8 129 -1 13 -13 0 -37 -40 -94 -156 -223 -225 -424 -224 -232
0 -359 88 -416 286 -15 51 -18 126 -22 577 l-4 517 315 0 315 0 4 -424z m2248
242 l-1 -183 -185 -205 c-102 -113 -222 -242 -267 -287 l-82 -83 283 0 282 0
0 -210 0 -210 -635 0 -635 0 0 183 0 184 166 184 c91 101 214 232 272 291
l106 108 -272 -7 -272 -6 0 211 0 212 620 0 620 0 0 -182z m1360 0 l-1 -183
-185 -205 c-102 -113 -222 -242 -267 -287 l-82 -83 283 0 282 0 0 -210 0 -210
-635 0 -635 0 0 184 0 184 213 233 c117 129 239 260 272 291 l60 57 -272 -6
-273 -6 0 211 0 212 620 0 620 0 0 -182z"/>
<path fill d="M6908 4497 c-14 -13 -32 -41 -39 -63 -19 -52 -19 -295 -1 -346 38
-107 169 -119 218 -21 16 32 19 61 19 198 0 172 -8 205 -57 239 -35 25 -110
21 -140 -7z"/>
<path d="M2595 5190 c-117 -15 -222 -72 -312 -170 -53 -58 -110 -184 -122
-271 -10 -74 -1 -187 18 -234 39 -90 74 -147 126 -199 173 -175 442 -204 655
-71 87 54 177 172 210 275 18 55 21 275 4 311 -6 13 -17 38 -23 54 -35 89
-136 200 -231 252 -84 47 -209 67 -325 53z"/>
<path d="M3220 5194 c0 -3 15 -24 34 -47 18 -23 39 -52 45 -64 12 -23 14 -23
216 -23 l204 0 40 54 c23 30 45 57 51 61 34 21 -13 25 -290 25 -165 0 -300 -3
-300 -6z"/>
<path d="M4285 5190 c-273 -35 -481 -313 -436 -583 14 -80 16 -88 57 -171 63
-129 218 -243 364 -267 168 -28 348 27 457 139 49 50 116 157 134 212 19 59
19 262 0 310 -26 69 -35 86 -74 145 -39 60 -111 126 -177 162 -83 46 -214 67
-325 53z"/>
<path d="M3410 4816 c0 -7 3 -28 6 -45 l7 -31 98 0 c77 0 99 3 99 14 0 7 3 28
6 45 l7 31 -112 0 c-87 0 -111 -3 -111 -14z"/>
<path d="M13868 4534 c-30 -16 -61 -70 -71 -121 l-6 -33 139 0 140 0 0 28 c0
40 -41 115 -70 129 -34 17 -99 16 -132 -3z"/>
</g>
</svg>
